<?xml version="1.0" standalone="no"?>
<!DOCTYPE svg PUBLIC "-//W3C//DTD SVG 20010904//EN"
 "http://www.w3.org/TR/2001/REC-SVG-20010904/DTD/svg10.dtd">
<svg version="1.0" xmlns="http://www.w3.org/2000/svg"
 width="1249.000000pt" height="1249.000000pt" viewBox="0 0 1249.000000 1249.000000"
 preserveAspectRatio="xMidYMid meet">
<metadata>
Created by potrace 1.11, written by Peter Selinger 2001-2013
</metadata>
<g transform="translate(0.000000,1249.000000) scale(0.100000,-0.100000)"
fill="#000000" stroke="none">
<path d="M5880 10056 c-30 -7 -73 -19 -95 -26 -22 -8 -42 -15 -45 -15 -41 -10
-67 -19 -75 -25 -5 -4 -44 -18 -85 -30 -66 -20 -79 -22 -120 -11 -66 19 -81
22 -125 28 -96 13 -218 3 -269 -23 -16 -8 -35 -14 -41 -14 -7 0 -18 -7 -25
-15 -6 -8 -15 -13 -19 -12 -19 6 -144 -123 -181 -189 -43 -75 -79 -176 -101
-284 -33 -163 -28 -148 -110 -317 -130 -268 -164 -363 -159 -443 6 -98 1 -179
-15 -236 -9 -32 -18 -69 -21 -81 -2 -12 -9 -35 -16 -50 -6 -16 -12 -33 -13
-38 -2 -6 -17 -44 -34 -85 -32 -78 -92 -150 -196 -235 -26 -22 -54 -46 -61
-52 -6 -7 -47 -40 -91 -75 -43 -34 -87 -70 -98 -79 -11 -10 -40 -35 -64 -56
-97 -83 -168 -155 -206 -209 -22 -30 -57 -79 -77 -107 -20 -29 -47 -67 -60
-85 -13 -18 -34 -48 -48 -66 -14 -19 -32 -44 -40 -56 -19 -29 -253 -343 -260
-350 -3 -3 -29 -34 -59 -70 -69 -82 -201 -214 -266 -266 -57 -45 -126 -91
-139 -92 -5 0 -12 -4 -15 -9 -18 -26 -260 -118 -335 -127 -35 -4 -124 17 -136
33 -3 3 -18 13 -33 21 -59 30 -297 282 -297 314 0 4 -8 16 -18 26 -48 52 -205
420 -187 438 2 3 1 10 -4 16 -20 24 -25 131 -27 566 -2 441 -4 508 -18 635 -4
33 -9 78 -11 100 -4 41 -13 101 -21 145 -2 14 -7 41 -10 60 -3 19 -7 42 -10
50 -3 8 -8 26 -10 40 -7 39 -61 212 -81 255 -9 22 -17 42 -17 45 -1 6 -80 145
-99 174 -41 64 -133 161 -201 213 -63 47 -254 145 -267 137 -4 -2 -10 0 -13 5
-6 9 -96 40 -136 47 -8 1 -50 12 -94 23 -43 12 -82 19 -86 16 -5 -3 -11 -1
-15 5 -4 6 -10 8 -14 6 -4 -3 -23 -1 -42 4 -19 5 -61 11 -94 14 -33 4 -74 8
-92 11 -33 4 -194 8 -247 6 l-29 -1 29 -22 c16 -13 37 -33 47 -45 10 -13 24
-29 32 -36 15 -15 106 -187 99 -187 -2 0 2 -13 10 -29 9 -16 12 -31 9 -35 -4
-3 -2 -6 3 -6 6 0 16 -22 23 -49 7 -28 18 -54 24 -59 7 -5 50 -24 97 -42 92
-36 176 -79 210 -107 98 -81 177 -194 210 -303 7 -25 15 -49 17 -55 28 -92 38
-197 38 -395 0 -237 -10 -334 -59 -610 -8 -41 -14 -82 -14 -90 0 -8 -3 -35 -6
-60 -4 -25 -8 -83 -11 -130 -2 -47 -5 -85 -6 -85 -1 0 -2 -75 -3 -167 -1 -93
2 -168 6 -168 5 0 4 -8 -1 -19 -6 -10 -9 -20 -7 -22 2 -2 7 -40 11 -84 7 -84
9 -102 20 -175 11 -79 16 -104 25 -140 5 -19 11 -46 13 -60 7 -36 53 -189 68
-225 6 -16 13 -35 14 -41 5 -21 68 -160 95 -209 15 -27 36 -65 46 -84 11 -19
22 -40 27 -45 134 -188 128 -180 222 -284 128 -142 318 -304 505 -432 36 -25
67 -48 68 -52 2 -5 10 -8 18 -8 8 0 17 -7 20 -15 4 -8 12 -15 18 -15 7 0 21
-9 33 -19 23 -22 83 -54 83 -45 0 4 6 2 12 -3 7 -5 42 -20 78 -32 36 -13 72
-26 80 -29 26 -9 33 -11 133 -36 152 -39 279 -48 447 -32 41 4 98 9 125 11 28
3 63 6 78 9 28 3 29 3 22 -33 -7 -38 -26 -84 -80 -192 -36 -73 -57 -111 -65
-119 -3 -3 -27 -39 -55 -80 -27 -41 -55 -82 -62 -90 -7 -8 -26 -33 -43 -55
-36 -47 -81 -103 -95 -119 -5 -6 -39 -45 -75 -85 -36 -41 -76 -87 -90 -101
-101 -108 -141 -148 -247 -250 -118 -114 -188 -179 -299 -275 -31 -27 -64 -57
-73 -65 -9 -9 -45 -40 -81 -69 -35 -29 -69 -58 -76 -64 -7 -7 -25 -22 -41 -34
-15 -12 -41 -33 -58 -47 -16 -15 -45 -36 -62 -49 -57 -39 -44 -43 52 -17 22 6
49 13 60 15 100 18 499 158 598 210 16 8 35 15 43 15 8 0 14 5 14 10 0 6 6 10
14 10 26 0 381 204 441 253 6 4 33 25 61 46 154 113 328 274 440 407 21 25 47
56 58 68 10 11 30 37 45 56 14 19 28 37 31 40 3 3 16 22 30 42 14 21 28 38 33
38 4 0 7 5 7 11 0 5 17 36 38 67 55 81 143 232 135 232 -3 0 0 8 8 18 15 16
81 151 129 260 21 47 27 52 56 52 37 0 52 -16 48 -50 -2 -14 -5 -50 -7 -81 -2
-31 -7 -61 -11 -68 -4 -6 -4 -11 1 -11 4 0 9 -38 10 -85 2 -100 23 -182 55
-212 37 -35 121 -46 213 -29 43 8 173 54 190 67 6 4 23 13 38 18 l27 11 -32
-63 c-17 -34 -35 -64 -38 -67 -3 -3 -17 -23 -30 -45 -13 -22 -29 -43 -34 -47
-7 -5 -7 -8 -1 -8 6 0 3 -6 -5 -13 -8 -7 -30 -34 -49 -62 -106 -154 -358 -426
-570 -615 -47 -41 -92 -82 -101 -90 -9 -8 -38 -33 -65 -54 -28 -22 -57 -47
-66 -55 -22 -21 -97 -82 -124 -101 -12 -8 -91 -67 -176 -131 -124 -93 -297
-215 -409 -289 -198 -130 -376 -240 -389 -240 -6 0 -11 -3 -11 -8 0 -4 -17
-16 -37 -27 -21 -11 -65 -37 -98 -57 -33 -21 -66 -38 -72 -38 -7 0 -13 -4 -13
-10 0 -5 -5 -10 -10 -10 -18 0 -182 -98 -173 -103 19 -11 397 2 468 17 11 2
40 7 65 11 59 10 60 10 170 40 96 26 287 92 305 105 6 4 25 11 43 15 17 3 32
11 32 16 0 5 6 9 14 9 13 0 216 98 226 109 3 3 19 13 35 21 71 35 344 207 365
230 3 3 28 21 55 40 47 32 227 172 251 195 6 5 35 30 64 55 269 227 668 655
830 890 13 19 27 37 30 40 6 6 42 61 96 145 45 71 98 179 108 217 6 25 10 27
39 23 18 -3 50 -7 70 -9 21 -2 40 -5 42 -8 2 -2 55 -3 117 -1 95 3 143 -2 233
-23 6 -1 22 -4 38 -7 15 -3 35 -8 45 -11 9 -3 39 -8 65 -10 26 -3 51 -7 55
-10 9 -5 183 -19 237 -18 121 3 228 20 400 67 97 27 106 29 185 47 52 12 131
10 155 -3 13 -7 292 -3 324 5 45 11 96 29 134 49 34 18 39 18 55 4 9 -9 26
-33 37 -54 10 -21 28 -51 40 -68 11 -16 19 -31 18 -32 -3 -3 119 -252 134
-275 4 -7 8 -15 8 -18 1 -6 47 -95 75 -145 37 -67 103 -170 122 -191 10 -11
18 -24 18 -29 0 -19 139 -143 184 -164 75 -35 99 -29 314 77 81 40 147 66 168
66 19 1 34 4 34 7 0 3 12 5 28 3 15 -2 43 -6 62 -8 19 -3 55 -9 80 -15 69 -16
197 -7 250 17 47 22 120 82 120 100 0 5 7 15 15 22 8 7 20 30 27 52 29 97 158
161 393 192 49 7 224 59 279 83 77 34 196 111 196 127 0 4 9 17 21 29 35 37
70 130 73 195 1 12 3 22 6 22 3 0 6 14 7 31 1 17 8 37 14 45 6 8 80 48 163 89
83 42 183 93 221 115 39 22 81 45 95 52 14 7 27 15 30 18 3 3 39 27 80 55 89
59 177 145 196 192 8 18 15 61 15 94 1 55 5 64 38 103 40 46 98 156 107 205 4
16 31 56 63 90 32 33 82 88 112 122 75 87 78 89 102 90 12 0 36 2 52 4 17 2
59 7 95 10 72 8 78 9 135 20 22 4 47 9 55 10 61 12 235 83 266 110 7 6 32 26
57 45 25 19 53 47 62 63 9 15 20 27 26 27 5 0 9 7 9 15 0 9 8 24 18 35 16 17
66 161 77 220 3 14 7 36 10 50 4 14 8 34 10 45 24 129 35 159 73 187 103 74
226 195 280 276 65 97 86 156 86 247 0 96 -2 105 -37 177 -62 127 -220 260
-459 389 -43 23 -78 45 -78 49 0 5 5 21 11 37 6 15 12 39 14 53 2 26 -30 100
-49 112 -6 4 -11 40 -12 80 0 40 -2 75 -3 78 -1 3 -5 16 -7 30 -12 63 -49 141
-84 177 -39 38 -154 104 -210 118 -3 0 -21 6 -41 13 -20 7 -46 15 -59 17 -30
6 -64 38 -87 82 -10 19 -26 49 -35 67 -9 17 -29 69 -43 116 -34 111 -47 141
-83 181 -35 40 -139 96 -166 90 -4 -1 -13 2 -20 7 -29 23 -351 67 -553 76 -50
2 -55 4 -110 64 -50 53 -120 98 -168 108 -63 13 -89 16 -140 15 -33 0 -71 -3
-85 -6 -36 -8 -62 -14 -85 -19 -29 -6 -136 -47 -160 -61 -23 -14 -28 -13 -79
4 -28 10 -73 12 -166 7 l-129 -6 -73 34 c-40 18 -102 42 -138 54 -57 17 -84
25 -150 39 -111 24 -325 22 -440 -4 -90 -20 -140 -38 -250 -92 -101 -49 -176
-94 -211 -127 -14 -13 -28 -24 -32 -24 -15 0 -173 -153 -247 -240 -25 -29 -49
-58 -55 -64 -10 -12 -13 -16 -73 -108 -36 -56 -38 -58 -82 -58 -49 0 -128 33
-172 71 -16 14 -34 47 -44 79 -32 105 -82 255 -108 325 -25 66 -114 254 -126
265 -3 3 -18 23 -34 45 -36 49 -106 114 -123 115 -7 0 -13 4 -13 8 0 8 -182
68 -236 78 -38 7 -148 60 -163 78 -8 9 -17 16 -22 16 -5 0 -32 15 -61 33 -74
46 -231 116 -277 124 -14 2 -33 9 -43 14 -29 16 -235 19 -298 5z"/>
</g>
</svg>
